<?xml version="1.0" encoding="UTF-8"?>
<!DOCTYPE svg PUBLIC "-//W3C//DTD SVG 1.1//EN" "http://www.w3.org/Graphics/SVG/1.1/DTD/svg11.dtd">
<!-- Creator: CorelDRAW 2021 (64-Bit Evaluation Version) -->
<svg xmlns="http://www.w3.org/2000/svg" xml:space="preserve" width="1583px" height="315px" version="1.1" style="shape-rendering:geometricPrecision; text-rendering:geometricPrecision; image-rendering:optimizeQuality; fill-rule:evenodd; clip-rule:evenodd"
viewBox="0 0 1583 315.36"
 xmlns:xlink="http://www.w3.org/1999/xlink"
 xmlns:xodm="http://www.corel.com/coreldraw/odm/2003">
 <defs>
  <style type="text/css">
   <![CDATA[
    .fil0 {fill:#FEFEFE;fill-rule:nonzero}
    .fil2 {fill:#6054A1;fill-rule:nonzero}
    .fil4 {fill:#4E386D;fill-rule:nonzero}
    .fil3 {fill:#DB56EB;fill-rule:nonzero}
    .fil1 {fill:#DB56EB;fill-rule:nonzero}
   ]]>
  </style>
 </defs>
 <g id="Layer_x0020_1">
  <metadata id="CorelCorpID_0Corel-Layer"/>
  <path class="fil0" d="M659.9 113.72l0 -6.6 -8.58 0c-4.46,0 -7.92,2.8 -7.92,6.6 0,3.8 3.46,6.59 7.92,6.59 4.79,0 8.58,-2.79 8.58,-6.59zm37.96 -1.33l0 27.09 -34.16 0 0 -6.78c-5.28,5.45 -13.04,8.75 -22.11,8.75 -16.35,0 -28.72,-11.56 -28.72,-26.91 0,-15.34 12.37,-26.9 28.72,-26.9l18.31 0 0 -5.61 -40.76 0 0 -26.73 70.47 0 0 57.09 8.25 0z"/>
  <path class="fil0" d="M702.65 97.39c0,-25.09 19.64,-44.08 45.72,-44.08 23.43,0 41.75,15.36 45.05,36.64l-31.52 0c-2.64,-4.79 -7.59,-7.92 -13.53,-7.92 -8.75,0 -15.19,6.61 -15.19,15.36 0,8.74 6.44,15.34 15.19,15.34 5.94,0 10.89,-3.14 13.53,-7.92l31.52 0c-3.3,21.29 -21.62,36.64 -45.05,36.64 -26.08,0 -45.72,-18.98 -45.72,-44.06z"/>
  <path class="fil0" d="M845.25 113.72l0 -6.6 -8.59 0c-4.45,0 -7.92,2.8 -7.92,6.6 0,3.8 3.47,6.59 7.92,6.59 4.79,0 8.59,-2.79 8.59,-6.59zm37.96 -1.33l0 27.09 -34.17 0 0 -6.78c-5.28,5.45 -13.04,8.75 -22.11,8.75 -16.34,0 -28.72,-11.56 -28.72,-26.91 0,-15.34 12.38,-26.9 28.72,-26.9l18.32 0 0 -5.61 -40.77 0 0 -26.73 70.47 0 0 57.09 8.26 0z"/>
  <path class="fil0" d="M949.39 97.39c0,-8.75 -6.44,-15.36 -15.19,-15.36 -8.74,0 -15.18,6.61 -15.18,15.36 0,8.74 6.44,15.34 15.18,15.34 8.75,0 15.19,-6.6 15.19,-15.34zm29.7 -76.76l0 118.85 -29.7 0 0 -6.12c-5.61,5.11 -12.71,8.09 -21.13,8.09 -22.77,0 -39.77,-18.98 -39.77,-44.06 0,-25.09 17,-44.08 39.77,-44.08 8.42,0 15.52,2.98 21.13,8.1l0 -40.78 29.7 0z"/>
  <path class="fil0" d="M1022.67 88.8l27.89 0c-2.31,-6.6 -7.76,-10.4 -14.03,-10.4 -6.27,0 -11.39,3.96 -13.86,10.4zm58.92 16.99l-58.92 0c2.31,6.6 7.59,10.56 14.68,10.56 5.62,0 10.57,-2.47 12.22,-4.94l31.19 0c-5.94,17.83 -22.94,30.04 -44.23,30.04 -26.07,0 -45.72,-18.98 -45.72,-44.06 0,-25.09 19.65,-44.08 45.72,-44.08 26.08,0 45.72,18.82 45.72,44.72 0,2.31 -0.17,5.63 -0.66,7.76z"/>
  <path class="fil0" d="M1227.15 84.18l0 55.3 -29.71 0 0 -46.23c0,-6.76 -4.13,-11.22 -10.4,-11.22 -6.92,0 -11.7,4.62 -11.7,11.56l0 45.89 -29.72 0 0 -46.23c0,-6.76 -4.12,-11.22 -10.39,-11.22 -6.94,0 -11.73,4.62 -11.73,11.56l0 45.89 -29.7 0 0 -84.18 29.7 0 0 7.26c5.79,-6.11 13.21,-9.25 21.8,-9.25 11.21,0 20.28,4.79 25.25,13.05 6.76,-8.59 15.66,-13.05 26.56,-13.05 18,0 30.04,12.22 30.04,30.87z"/>
  <path class="fil0" d="M1242.02 55.3l29.7 0 0 84.18 -29.7 0 0 -84.18zm-3.14 -25.09c0,-10.24 7.74,-17.83 17.98,-17.83 10.24,0 18,7.59 18,17.83 0,10.23 -7.76,17.83 -18,17.83 -10.24,0 -17.98,-7.6 -17.98,-17.83z"/>
  <path class="fil0" d="M1329.31 113.72l0 -6.6 -8.57 0c-4.46,0 -7.92,2.8 -7.92,6.6 0,3.8 3.46,6.59 7.92,6.59 4.79,0 8.57,-2.79 8.57,-6.59zm37.97 -1.33l0 27.09 -34.17 0 0 -6.78c-5.28,5.45 -13.03,8.75 -22.12,8.75 -16.33,0 -28.72,-11.56 -28.72,-26.91 0,-15.34 12.39,-26.9 28.72,-26.9l18.32 0 0 -5.61 -40.76 0 0 -26.73 70.48 0 0 57.09 8.25 0z"/>
  <path class="fil0" d="M1450.16 94.74c0,-8.75 -6.44,-15.35 -15.19,-15.35 -8.74,0 -15.18,6.6 -15.18,15.35 0,8.74 6.44,15.36 15.18,15.36 8.75,0 15.19,-6.62 15.19,-15.36zm29.71 -76.74l0 118.82 -29.71 0 0 -6.11c-5.61,5.13 -12.71,8.1 -21.12,8.1 -22.78,0 -39.78,-18.98 -39.78,-44.07 0,-25.08 17,-44.07 39.78,-44.07 8.41,0 15.51,2.98 21.12,8.09l0 -40.76 29.71 0z"/>
  <path class="fil0" d="M1552.48 94.74c0,-8.75 -6.44,-15.35 -15.19,-15.35 -8.75,0 -15.18,6.6 -15.18,15.35 0,8.74 6.43,15.36 15.18,15.36 8.75,0 15.19,-6.62 15.19,-15.36zm-60.91 0c0,-25.08 19.64,-44.07 45.72,-44.07 26.07,0 45.71,18.99 45.71,44.07 0,25.09 -19.64,44.07 -45.71,44.07 -26.08,0 -45.72,-18.98 -45.72,-44.07z"/>
  <path class="fil1" d="M671.03 233.08c0,-8.46 -6.23,-14.86 -14.7,-14.86 -8.47,0 -14.7,6.4 -14.7,14.86 0,8.47 6.23,14.87 14.7,14.87 8.47,0 14.7,-6.4 14.7,-14.87zm29.56 0c0,24.3 -16.46,42.67 -38.51,42.67 -8.14,0 -15.02,-2.88 -20.45,-7.83l0 36.27 -28.76 0 0 -111.86 28.76 0 0 5.92c5.43,-4.95 12.31,-7.83 20.45,-7.83 22.05,0 38.51,18.37 38.51,42.66z"/>
  <path class="fil1" d="M761.48 191.05l0 29.56c-13.59,0 -20.3,6.57 -20.3,16.78l0 36.45 -28.76 0 0 -81.51 28.76 0 0 8.96c5.6,-6.57 12.47,-10.24 20.3,-10.24z"/>
  <path class="fil1" d="M824.76 233.08c0,-8.46 -6.23,-14.86 -14.7,-14.86 -8.48,0 -14.7,6.4 -14.7,14.86 0,8.47 6.22,14.87 14.7,14.87 8.47,0 14.7,-6.4 14.7,-14.87zm-58.97 0c0,-24.29 19.02,-42.66 44.27,-42.66 25.24,0 44.26,18.37 44.26,42.66 0,24.3 -19.02,42.67 -44.26,42.67 -25.25,0 -44.27,-18.37 -44.27,-42.67z"/>
  <path class="fil1" d="M920.32 231.33c0,-8.47 -6.23,-14.86 -14.7,-14.86 -8.48,0 -14.71,6.39 -14.71,14.86 0,8.46 6.23,14.86 14.71,14.86 8.47,0 14.7,-6.4 14.7,-14.86zm28.76 -39l0 111.86 -79.74 0 0 -26.21 50.98 0 0 -13.26c-5.44,4.8 -12.31,7.52 -20.46,7.52 -22.05,0 -38.51,-17.58 -38.51,-40.91 0,-23.33 16.46,-40.91 38.51,-40.91 8.15,0 15.02,2.72 20.46,7.5l0 -5.59 28.76 0z"/>
  <path class="fil1" d="M1014.12 191.05l0 29.56c-13.58,0 -20.29,6.57 -20.29,16.78l0 36.45 -28.77 0 0 -81.51 28.77 0 0 8.96c5.59,-6.57 12.46,-10.24 20.29,-10.24z"/>
  <path class="fil1" d="M1063.82 248.91l0 -6.41 -8.31 0c-4.32,0 -7.67,2.72 -7.67,6.41 0,3.67 3.35,6.38 7.67,6.38 4.63,0 8.31,-2.71 8.31,-6.38zm36.75 -1.28l0 26.21 -33.08 0 0 -6.57c-5.11,5.28 -12.62,8.48 -21.41,8.48 -15.82,0 -27.8,-11.19 -27.8,-26.05 0,-14.86 11.98,-26.05 27.8,-26.05l17.74 0 0 -5.43 -39.47 0 0 -25.89 68.23 0 0 55.3 7.99 0z"/>
  <path class="fil1" d="M1238.96 220.31l0 53.53 -28.76 0 0 -44.76c0,-6.55 -4.02,-10.86 -10.08,-10.86 -6.71,0 -11.35,4.48 -11.35,11.19l0 44.43 -28.76 0 0 -44.76c0,-6.55 -3.99,-10.86 -10.06,-10.86 -6.71,0 -11.35,4.48 -11.35,11.19l0 44.43 -28.76 0 0 -81.51 28.76 0 0 7.04c5.59,-5.92 12.79,-8.95 21.09,-8.95 10.87,0 19.65,4.63 24.46,12.62 6.54,-8.32 15.18,-12.62 25.72,-12.62 17.42,0 29.09,11.82 29.09,29.89z"/>
  <path class="fil1" d="M1293.13 248.91l0 -6.41 -8.32 0c-4.31,0 -7.66,2.72 -7.66,6.41 0,3.67 3.35,6.38 7.66,6.38 4.65,0 8.32,-2.71 8.32,-6.38zm36.75 -1.28l0 26.21 -33.07 0 0 -6.57c-5.12,5.28 -12.62,8.48 -21.42,8.48 -15.82,0 -27.8,-11.19 -27.8,-26.05 0,-14.86 11.98,-26.05 27.8,-26.05l17.74 0 0 -5.43 -39.47 0 0 -25.89 68.23 0 0 55.3 7.99 0z"/>
  <path class="fil1" d="M1393.96 233.08c0,-8.46 -6.23,-14.86 -14.7,-14.86 -8.47,0 -14.7,6.4 -14.7,14.86 0,8.47 6.23,14.87 14.7,14.87 8.47,0 14.7,-6.4 14.7,-14.87zm28.76 -74.3l0 115.06 -28.76 0 0 -5.92c-5.44,4.95 -12.31,7.83 -20.46,7.83 -22.04,0 -38.51,-18.37 -38.51,-42.67 0,-24.29 16.47,-42.66 38.51,-42.66 8.15,0 15.02,2.88 20.46,7.83l0 -39.47 28.76 0z"/>
  <path class="fil1" d="M1493.04 233.08c0,-8.46 -6.24,-14.86 -14.71,-14.86 -8.46,0 -14.7,6.4 -14.7,14.86 0,8.47 6.24,14.87 14.7,14.87 8.47,0 14.71,-6.4 14.71,-14.87zm-58.97 0c0,-24.29 19.02,-42.66 44.26,-42.66 25.25,0 44.26,18.37 44.26,42.66 0,24.3 -19.01,42.67 -44.26,42.67 -25.24,0 -44.26,-18.37 -44.26,-42.67z"/>
  <path class="fil1" d="M1583 191.05l0 29.56c-13.58,0 -20.29,6.57 -20.29,16.78l0 36.45 -28.77 0 0 -81.51 28.77 0 0 8.96c5.6,-6.57 12.47,-10.24 20.29,-10.24z"/>
  <polygon class="fil2" points="0,113.32 143.79,225.35 143.79,315.36 0,203.34 "/>
  <polygon class="fil2" points="488.3,202.04 344.51,90.02 344.51,0 488.3,112.03 "/>
  <path class="fil3" d="M354.29 161.11c0,-17.79 -13.1,-31.22 -30.89,-31.22 -17.79,0 -30.89,13.43 -30.89,31.22 0,17.8 13.1,31.22 30.89,31.22 17.79,0 30.89,-13.42 30.89,-31.22zm62.12 0c0,51.04 -34.6,89.65 -80.92,89.65 -17.13,0 -31.56,-6.04 -42.98,-16.46l0 76.23 -60.43 0 0 -235.04 60.43 0 0 12.42c11.42,-10.4 25.85,-16.45 42.98,-16.45 46.32,0 80.92,38.62 80.92,89.65z"/>
  <path class="fil0" d="M172.15 194.35l0 -13.44 -17.46 0c-9.07,0 -16.12,5.72 -16.12,13.44 0,7.73 7.05,13.43 16.12,13.43 9.74,0 17.46,-5.7 17.46,-13.43zm77.22 -2.69l0 55.06 -69.5 0 0 -13.75c-10.74,11.08 -26.53,17.79 -44.99,17.79 -33.24,0 -58.42,-23.51 -58.42,-54.73 0,-31.22 25.18,-54.73 58.42,-54.73l37.27 0 0 -11.41 -82.93 0 0 -54.4 143.37 0 0 116.17 16.78 0z"/>
  <polygon class="fil4" points="488.3,113.32 344.51,225.35 344.51,315.36 488.3,203.34 "/>
  <polygon class="fil4" points="0,202.04 143.79,90.02 143.79,0 0,112.03 "/>
 </g>
</svg>
